<svg width="885.003" xmlns="http://www.w3.org/2000/svg" height="1295.5" fill="none"><g data-testid="dualchain_logo" style="fill: rgb(0, 0, 0);"><g style="opacity: 1;"><path d="M407 1288.5c2.264.72 4.597 1.05 7 1-.774.65-1.774.98-3 1-1.855.16-3.188-.51-4-2Z" style="shape-rendering: geometricprecision; text-rendering: geometricprecision; fill-rule: evenodd; clip-rule: evenodd; fill: rgb(114, 114, 114);" class="fills" data-testid="svg-path"/></g><g style="opacity: 0.21;"><path d="M386 145.5h3a75.813 75.813 0 0 1 11 4c.473 1.406 1.473 2.073 3 2a121.33 121.33 0 0 1 13 7c2.094 2.494 4.094 2.494 6 0a4360.727 4360.727 0 0 0 104-71 21.516 21.516 0 0 0-7-5.5 8556.518 8556.518 0 0 1-88-50.5c-.473-1.406-1.473-2.073-3-2A927.556 927.556 0 0 0 392 10l-10-4c-1.667-.667-3.333-.667-5 0a12364.128 12364.128 0 0 0-218 144.5 66.37 66.37 0 0 0-16 11 1320.624 1320.624 0 0 0-41 27c-2.698.345-4.698 1.678-6 4-18.675 12.336-37.342 24.67-56 37a129.055 129.055 0 0 0-18 12 156.08 156.08 0 0 0-18 12c-1.167 269.999-1.333 540-.5 810 5.11 3.47 10.277 6.8 15.5 10 .473 1.41 1.473 2.07 3 2a1073.746 1073.746 0 0 0 67 38c2.508 2.42 5.508 4.09 9 5a73.04 73.04 0 0 1 13 7c3.24 2.45 6.907 4.12 11 5a212.227 212.227 0 0 0 31 13c1.419.95 3.085 1.28 5 1 .649-4.64 1.149-9.3 1.5-14 .831-38.17.664-76.17-.5-114a2183.723 2183.723 0 0 1-37.5-22c-.5-166.67-.667-333.33-.5-500-.167-58.668 0-117.334.5-176 .717-.544 1.217-1.211 1.5-2a2575.586 2575.586 0 0 1 57-38 8.43 8.43 0 0 0 4-.5l12-8a18.473 18.473 0 0 0 2-3.5 4284.56 4284.56 0 0 1 104-69c6.129-1.822 11.129-5.155 15-10a1445.783 1445.783 0 0 1 43-28c4.042-1.351 7.375-3.685 10-7h4a112131.196 112131.196 0 0 0-249.5 167c-.667 224.333-.667 448.67 0 673a987.676 987.676 0 0 1 36 22c.5 44.67.667 89.33.5 134-4.534.23-8.868-.6-13-2.5-51.65-23.06-100.817-50.22-147.5-81.5-.667-270.33-.667-540.667 0-811A182.038 182.038 0 0 1 11 245 1580466.103 1580466.103 0 0 1 379 0c7.837 1.783 14.837 5.449 21 11a6369.381 6369.381 0 0 1 120 67c4.21 2.6 8.21 5.433 12 8.5A90.284 90.284 0 0 1 517 99a3575.073 3575.073 0 0 0-94 64c-1.667.667-3.333.667-5 0a733.243 733.243 0 0 1-32-17.5Z" style="shape-rendering: geometricprecision; text-rendering: geometricprecision; fill-rule: evenodd; clip-rule: evenodd; fill: rgb(16, 16, 16);" class="fills" data-testid="svg-path"/></g><g style="opacity: 1;"><path d="M428 29.5c.473 1.406 1.473 2.073 3 2 29.17 16.97 58.5 33.803 88 50.5a21.516 21.516 0 0 1 7 5.5 4360.727 4360.727 0 0 1-104 71h-6a121.33 121.33 0 0 0-13-7c-.473-1.406-1.473-2.073-3-2a75.813 75.813 0 0 0-11-4c-2.524-1.3-5.191-1.3-8 0-2.177 2.258-4.843 3.758-8 4.5-.752.671-1.086 1.504-1 2.5h-2a41.166 41.166 0 0 0-10 7 1445.783 1445.783 0 0 0-43 28 57.312 57.312 0 0 0-15 10 4284.56 4284.56 0 0 0-104 69 129.055 129.055 0 0 0-18 12 2575.586 2575.586 0 0 0-57 38c-.996-.086-1.829.248-2.5 1a5227.287 5227.287 0 0 0 .5 177c-.167 166.67 0 333.33.5 500 12.445 7.47 24.945 14.8 37.5 22 .167 35.67 0 71.33-.5 107-.286 6.7-.786 13.37-1.5 20h-4a212.227 212.227 0 0 1-31-13c-2.997-3-6.664-4.66-11-5a73.04 73.04 0 0 0-13-7c.131-.88-.202-1.54-1-2-2.491-1.56-5.157-2.56-8-3a1073.746 1073.746 0 0 1-67-38c-.473-1.41-1.473-2.07-3-2-5.223-3.2-10.39-6.53-15.5-10-.833-270-.667-540.001.5-810a156.08 156.08 0 0 1 18-12 8.43 8.43 0 0 0 4-.5l12-8a18.473 18.473 0 0 0 2-3.5c18.658-12.33 37.325-24.664 56-37 2.466-.798 4.466-2.131 6-4a1320.624 1320.624 0 0 1 41-27 47.43 47.43 0 0 0 14-7.5 18.473 18.473 0 0 0 2-3.5A12364.128 12364.128 0 0 1 377 6c1.667-.667 3.333-.667 5 0l10 4a927.556 927.556 0 0 1 36 19.5Z" style="shape-rendering: geometricprecision; text-rendering: geometricprecision; fill-rule: evenodd; clip-rule: evenodd; fill: rgb(253, 253, 253);" class="fills" data-testid="svg-path"/></g><g style="opacity: 0.961;"><path d="M428 29.5c1.527-.073 2.527.594 3 2-1.527.073-2.527-.594-3-2Z" style="shape-rendering: geometricprecision; text-rendering: geometricprecision; fill-rule: evenodd; clip-rule: evenodd; fill: rgb(117, 117, 117);" class="fills" data-testid="svg-path"/></g><g style="opacity: 0.221;"><path d="M602 268.5c1.72.129 3.38.462 5 1a1366.02 1366.02 0 0 1 74 42.5c1.85 1.128 3.85 1.628 6 1.5a3008.067 3008.067 0 0 0 15-102c1.36-5.81 2.36-11.81 3-18 .88-3.99-.45-6.823-4-8.5a99713.08 99713.08 0 0 1-70-39 769.706 769.706 0 0 0-56-31.5c-3.71-3.85-7.37-3.85-11 0a7868.238 7868.238 0 0 0-173 114 46.204 46.204 0 0 0-13 9 2213.363 2213.363 0 0 0-53 35 66.37 66.37 0 0 0-16 11c-12.008 8.003-24.008 16.003-36 24-3.892 1.562-7.225 3.895-10 7a149977.49 149977.49 0 0 1-68 45c-.667 0-1 .333-1 1-.9 232.5-1.567 465.17-2 698-.659 29.02.008 57.69 2 86h1a328.289 328.289 0 0 0 37 18c2.335 2.66 5.335 4 9 4 1.101 1.1 2.434 1.26 4 .5a3080.992 3080.992 0 0 0 50-40.5 6.97 6.97 0 0 0 4-2h2a2220.862 2220.862 0 0 0-44 38.5c-4.372 2.85-8.705 5.68-13 8.5a1257.496 1257.496 0 0 1-52.5-25c-.667-262.67-.667-525.333 0-788a56734.254 56734.254 0 0 1 377-252 8914.484 8914.484 0 0 1 140 79c-5.93 44.326-12.09 88.659-18.5 133-2.92.04-5.59-.793-8-2.5a5037.744 5037.744 0 0 0-80-47.5Z" style="shape-rendering: geometricprecision; text-rendering: geometricprecision; fill-rule: evenodd; clip-rule: evenodd; fill: rgb(14, 14, 14);" class="fills" data-testid="svg-path"/></g><g style="opacity: 1;"><path d="M575 114.5c-3.67-1.333-7.33-1.333-11 0 3.63-3.85 7.29-3.85 11 0Z" style="shape-rendering: geometricprecision; text-rendering: geometricprecision; fill-rule: evenodd; clip-rule: evenodd; fill: rgb(166, 166, 166);" class="fills" data-testid="svg-path"/></g><g style="opacity: 1;"><path d="M575 114.5a769.706 769.706 0 0 1 56 31.5 99713.08 99713.08 0 0 0 70 39c3.55 1.677 4.88 4.51 4 8.5-2.28 5.655-3.28 11.655-3 18a3008.067 3008.067 0 0 1-15 102c-2.15.128-4.15-.372-6-1.5a1366.02 1366.02 0 0 0-74-42.5c-6.94-4.141-13.94-8.307-21-12.5a981.707 981.707 0 0 1-7.5-3.5c-.76.07-1.26.403-1.5 1a427.983 427.983 0 0 0-24 13.5 62528.782 62528.782 0 0 0-235 155.5c-.996-.086-1.829.248-2.5 1-.5 150-.667 300-.5 450v81c4.732-.13 8.732-1.79 12-5 3.333-2.33 6.667-4.67 10-7 12.684-7.69 25.351-15.36 38-23 2.348-.09 4.014-1.09 5-3a8.394 8.394 0 0 0 4-.5 44.286 44.286 0 0 0 4-4.5c14.157-9.25 28.49-18.25 43-27a8.394 8.394 0 0 0 4-.5 44.286 44.286 0 0 0 4-4.5c20.16-13.25 40.49-26.25 61-39 1.37.16 2.71-.01 4-.5a44.53 44.53 0 0 0 4-4.5c1.37.16 2.71-.01 4-.5a44.53 44.53 0 0 0 4-4.5c12.82-8.58 25.82-16.91 39-25 1.37.16 2.71-.01 4-.5a44.53 44.53 0 0 0 4-4.5c4.29-3.49 8.96-6.49 14-9 .62-.11 1.12-.44 1.5-1 .86-31.33 1.36-62.66 1.5-94 33.45-22.28 66.79-44.78 100-67.5a353.112 353.112 0 0 0 18-10.5c1 79.16 1.33 158.5 1 238-18.59 13.64-37.59 26.8-57 39.5-92 59.67-184 119.33-276 179a435.825 435.825 0 0 0-40 28.5c-2.353.84-4.353 2.17-6 4a105.245 105.245 0 0 0-25 18 3080.992 3080.992 0 0 1-50 40.5c-1.566.76-2.899.6-4-.5-2.661-1.99-5.661-3.32-9-4a328.289 328.289 0 0 1-37-18v-785c22.695-15.01 45.362-30.01 68-45 4.473-.821 7.806-3.154 10-7 11.992-7.997 23.992-15.997 36-24a47.43 47.43 0 0 0 14-7.5 18.473 18.473 0 0 0 2-3.5 2213.363 2213.363 0 0 1 53-35c5.604-1.291 9.938-4.291 13-9a7868.238 7868.238 0 0 1 173-114c3.67-1.333 7.33-1.333 11 0Z" style="shape-rendering: geometricprecision; text-rendering: geometricprecision; fill-rule: evenodd; clip-rule: evenodd; fill: rgb(254, 254, 254);" class="fills" data-testid="svg-path"/></g><g style="opacity: 0.192;"><path d="M389 145.5h-3a54.032 54.032 0 0 1-12 7h-2c-.086-.996.248-1.829 1-2.5 3.157-.742 5.823-2.242 8-4.5 2.809-1.3 5.476-1.3 8 0Z" style="shape-rendering: geometricprecision; text-rendering: geometricprecision; fill-rule: evenodd; clip-rule: evenodd; fill: rgb(85, 85, 85);" class="fills" data-testid="svg-path"/></g><g style="opacity: 0.984;"><path d="M400 149.5c1.527-.073 2.527.594 3 2-1.527.073-2.527-.594-3-2Z" style="shape-rendering: geometricprecision; text-rendering: geometricprecision; fill-rule: evenodd; clip-rule: evenodd; fill: rgb(125, 125, 125);" class="fills" data-testid="svg-path"/></g><g style="opacity: 0.82;"><path d="M370 152.5c-2.625 3.315-5.958 5.649-10 7a41.166 41.166 0 0 1 10-7Z" style="shape-rendering: geometricprecision; text-rendering: geometricprecision; fill-rule: evenodd; clip-rule: evenodd; fill: rgb(129, 129, 129);" class="fills" data-testid="svg-path"/></g><g style="opacity: 1;"><path d="M416 158.5h6c-1.906 2.494-3.906 2.494-6 0Z" style="shape-rendering: geometricprecision; text-rendering: geometricprecision; fill-rule: evenodd; clip-rule: evenodd; fill: rgb(154, 154, 154);" class="fills" data-testid="svg-path"/></g><g style="opacity: 1;"><path d="M159 150.5a18.473 18.473 0 0 1-2 3.5 47.43 47.43 0 0 1-14 7.5 66.37 66.37 0 0 1 16-11Z" style="shape-rendering: geometricprecision; text-rendering: geometricprecision; fill-rule: evenodd; clip-rule: evenodd; fill: rgb(195, 195, 195);" class="fills" data-testid="svg-path"/></g><g style="opacity: 0.988;"><path d="M102 188.5c-1.534 1.869-3.534 3.202-6 4 1.302-2.322 3.302-3.655 6-4Z" style="shape-rendering: geometricprecision; text-rendering: geometricprecision; fill-rule: evenodd; clip-rule: evenodd; fill: rgb(141, 141, 141);" class="fills" data-testid="svg-path"/></g><g style="opacity: 0.529;"><path d="M317 187.5c-3.871 4.845-8.871 8.178-15 10a57.312 57.312 0 0 1 15-10Z" style="shape-rendering: geometricprecision; text-rendering: geometricprecision; fill-rule: evenodd; clip-rule: evenodd; fill: rgb(56, 56, 56);" class="fills" data-testid="svg-path"/></g><g style="opacity: 1;"><path d="M705 193.5c-.64 6.19-1.64 12.19-3 18-.28-6.345.72-12.345 3-18Z" style="shape-rendering: geometricprecision; text-rendering: geometricprecision; fill-rule: evenodd; clip-rule: evenodd; fill: rgb(173, 173, 173);" class="fills" data-testid="svg-path"/></g><g style="opacity: 0.211;"><path d="M762 907.5v4a56.659 56.659 0 0 0-12 8c-2.7.34-4.7 1.68-6 4a4716.835 4716.835 0 0 0-110 71c-4.18 1.59-7.85 3.92-11 7-74.5 48.31-149.16 96.48-224 144.5-2 .67-4 .67-6 0a369.711 369.711 0 0 0-40-19.5 302.25 302.25 0 0 0-38 27c-2.589.92-4.589 2.59-6 5-2.927 1.26-5.261 3.26-7 6-2.249.58-3.915 1.91-5 4a343.739 343.739 0 0 0-23 21c-5 3-9 7-12 12-2.849 1.42-3.516 3.42-2 6a19900.55 19900.55 0 0 0 62 35c1.836 2.09 4.169 3.42 7 4a3151.737 3151.737 0 0 0 65 36c3.905 2.78 8.238 4.78 13 6 .812 1.49 2.145 2.16 4 2 1.226-.02 2.226-.35 3-1 156.03-101.68 312.03-203.34 468-305 1.33-115.83 2-232 2-348.5 0-116.334-.33-232.5-1-348.5-10.34-4.497-20-9.997-29-16.5a20.6 20.6 0 0 1-6-2 1210.961 1210.961 0 0 0-64-36.5c-1.53-1.869-3.53-3.202-6-4a1161.67 1161.67 0 0 1-40-21.5 8.43 8.43 0 0 0-4-.5 7319.903 7319.903 0 0 0-12 98c-1.39 4.769-2.06 9.769-2 15-1.7 4.461-1.04 8.628 2 12.5a598.77 598.77 0 0 0 39 23.5 6.927 6.927 0 0 1 1 4 907.445 907.445 0 0 1-45-27c-.33-1.333-.67-2.667-1-4 5.17-42.656 10.17-85.323 15-128 8.78 2.6 16.78 6.767 24 12.5a81.468 81.468 0 0 1 11 5c39.24 22.9 78.74 45.4 118.5 67.5.67 233.667.67 467.33 0 701a115834.774 115834.774 0 0 0-473.5 309c-49.689-27.51-99.356-55.01-149-82.5-3.119-1.54-5.786-3.54-8-6a20.41 20.41 0 0 1 3.5-6.5c28.911-29.59 60.744-55.42 95.5-77.5 1.333-.67 2.667-.67 4 0a1161.603 1161.603 0 0 0 40 21.5c121.49-79.25 243.16-158.25 365-237Z" style="shape-rendering: geometricprecision; text-rendering: geometricprecision; fill-rule: evenodd; clip-rule: evenodd; fill: rgb(20, 20, 20);" class="fills" data-testid="svg-path"/></g><g style="opacity: 1;"><path d="M778 228.5c1.3 2.322 3.3 3.655 6 4a1210.961 1210.961 0 0 1 64 36.5 20.6 20.6 0 0 0 6 2c9 6.503 18.66 12.003 29 16.5.33 232.403 0 464.74-1 697-155.97 101.66-311.97 203.32-468 305-2.403.05-4.736-.28-7-1-3.661-3.33-7.994-5.33-13-6a3151.737 3151.737 0 0 1-65-36c-1.527-2.57-3.861-3.9-7-4a19900.55 19900.55 0 0 1-62-35c.204-2.19.87-4.19 2-6 4.333-3.67 8.333-7.67 12-12a343.739 343.739 0 0 1 23-21c2.249-.58 3.915-1.91 5-4 2.927-1.26 5.261-3.26 7-6 2.589-.92 4.589-2.59 6-5a302.25 302.25 0 0 1 38-27 369.711 369.711 0 0 1 40 19.5c2 .67 4 .67 6 0 74.84-48.02 149.5-96.19 224-144.5 4.85-.59 8.52-2.92 11-7 36.32-24.16 72.98-47.83 110-71 2.47-.8 4.47-2.13 6-4 3.62-3.15 7.62-5.82 12-8 .67-.33 1.33-.67 2-1 .67-92.33 1-184.83 1-277.5 0-92.836-.67-185.336-2-277.5h-2a598.77 598.77 0 0 1-39-23.5c-3.04-3.872-3.7-8.039-2-12.5 1.39-4.769 2.06-9.769 2-15 3.78-32.696 7.78-65.363 12-98a8.43 8.43 0 0 1 4 .5 1161.67 1161.67 0 0 0 40 21.5Z" style="shape-rendering: geometricprecision; text-rendering: geometricprecision; fill-rule: evenodd; clip-rule: evenodd; fill: rgb(254, 254, 254);" class="fills" data-testid="svg-path"/></g><g style="opacity: 0.973;"><path d="M778 228.5c2.47.798 4.47 2.131 6 4-2.7-.345-4.7-1.678-6-4Z" style="shape-rendering: geometricprecision; text-rendering: geometricprecision; fill-rule: evenodd; clip-rule: evenodd; fill: rgb(100, 100, 100);" class="fills" data-testid="svg-path"/></g><g style="opacity: 1;"><path d="M391 228.5c-3.062 4.709-7.396 7.709-13 9a46.204 46.204 0 0 1 13-9Z" style="shape-rendering: geometricprecision; text-rendering: geometricprecision; fill-rule: evenodd; clip-rule: evenodd; fill: rgb(188, 188, 188);" class="fills" data-testid="svg-path"/></g><g style="opacity: 1;"><path d="M40 229.5a18.473 18.473 0 0 1-2 3.5l-12 8a8.43 8.43 0 0 1-4 .5 129.055 129.055 0 0 1 18-12Z" style="shape-rendering: geometricprecision; text-rendering: geometricprecision; fill-rule: evenodd; clip-rule: evenodd; fill: rgb(199, 199, 199);" class="fills" data-testid="svg-path"/></g><g style="opacity: 0.394;"><path d="M577 254.5c.99-.172 1.66.162 2 1a60821.256 60821.256 0 0 0-259.5 171c-.833 175.167-.666 350.17.5 525v1c-1 .67-2 1.33-3 2a73721.84 73721.84 0 0 1-1-305.5c.006-75.308.673-150.474 2-225.5A62528.782 62528.782 0 0 1 553 268a427.983 427.983 0 0 1 24-13.5Z" style="shape-rendering: geometricprecision; text-rendering: geometricprecision; fill-rule: evenodd; clip-rule: evenodd; fill: rgb(13, 13, 13);" class="fills" data-testid="svg-path"/></g><g style="opacity: 0.043;"><path d="M577 254.5c.24-.597.74-.93 1.5-1 2.51 1.184 5.01 2.351 7.5 3.5 7.06 4.193 14.06 8.359 21 12.5a20.68 20.68 0 0 0-5-1 129.886 129.886 0 0 1-23-13c-.34-.838-1.01-1.172-2-1Z" style="shape-rendering: geometricprecision; text-rendering: geometricprecision; fill-rule: evenodd; clip-rule: evenodd; fill: rgb(41, 41, 41);" class="fills" data-testid="svg-path"/></g><g style="opacity: 0.502;"><path d="M198 266.5a18.473 18.473 0 0 1-2 3.5l-12 8a8.43 8.43 0 0 1-4 .5 129.055 129.055 0 0 1 18-12Z" style="shape-rendering: geometricprecision; text-rendering: geometricprecision; fill-rule: evenodd; clip-rule: evenodd; fill: rgb(48, 48, 48);" class="fills" data-testid="svg-path"/></g><g style="opacity: 1;"><path d="M325 272.5a18.473 18.473 0 0 1-2 3.5 47.43 47.43 0 0 1-14 7.5 66.37 66.37 0 0 1 16-11Z" style="shape-rendering: geometricprecision; text-rendering: geometricprecision; fill-rule: evenodd; clip-rule: evenodd; fill: rgb(192, 192, 192);" class="fills" data-testid="svg-path"/></g><g style="opacity: 0.639;"><path d="M883 287.5c.67 116 1 232.166 1 348.5 0 116.5-.67 232.67-2 348.5 1-232.26 1.33-464.597 1-697Z" style="shape-rendering: geometricprecision; text-rendering: geometricprecision; fill-rule: evenodd; clip-rule: evenodd; fill: rgb(88, 88, 88);" class="fills" data-testid="svg-path"/></g><g style="opacity: 1;"><path d="M722 304.5c.06 5.231-.61 10.231-2 15-.06-5.231.61-10.231 2-15Z" style="shape-rendering: geometricprecision; text-rendering: geometricprecision; fill-rule: evenodd; clip-rule: evenodd; fill: rgb(158, 158, 158);" class="fills" data-testid="svg-path"/></g><g style="opacity: 1;"><path d="M273 307.5c-2.194 3.846-5.527 6.179-10 7 2.775-3.105 6.108-5.438 10-7Z" style="shape-rendering: geometricprecision; text-rendering: geometricprecision; fill-rule: evenodd; clip-rule: evenodd; fill: rgb(190, 190, 190);" class="fills" data-testid="svg-path"/></g><g style="opacity: 0.957;"><path d="M763 355.5c1.33 92.164 2 184.664 2 277.5 0 92.67-.33 185.17-1 277.5.33-185.07 0-370.07-1-555Z" style="shape-rendering: geometricprecision; text-rendering: geometricprecision; fill-rule: evenodd; clip-rule: evenodd; fill: rgb(221, 221, 221);" class="fills" data-testid="svg-path"/></g><g style="opacity: 0.169;"><path d="M761 355.5h2c1 184.93 1.33 369.93 1 555-.67.33-1.33.67-2 1v-552a6.927 6.927 0 0 0-1-4Z" style="shape-rendering: geometricprecision; text-rendering: geometricprecision; fill-rule: evenodd; clip-rule: evenodd; fill: rgb(57, 57, 57);" class="fills" data-testid="svg-path"/></g><g style="opacity: 1;"><path d="M318 423.5a12808.752 12808.752 0 0 0-2 225.5c.122 101.83.456 203.67 1 305.5l-2-80c-.167-150 0-300 .5-450 .671-.752 1.504-1.086 2.5-1Z" style="shape-rendering: geometricprecision; text-rendering: geometricprecision; fill-rule: evenodd; clip-rule: evenodd; fill: rgb(54, 54, 54);" class="fills" data-testid="svg-path"/></g><g style="opacity: 1;"><path d="M123 316.5c-.283.789-.783 1.456-1.5 2-.5 58.666-.667 117.332-.5 176a5227.287 5227.287 0 0 1-.5-177c.671-.752 1.504-1.086 2.5-1Z" style="shape-rendering: geometricprecision; text-rendering: geometricprecision; fill-rule: evenodd; clip-rule: evenodd; fill: rgb(93, 93, 93);" class="fills" data-testid="svg-path"/></g><g style="opacity: 0.19;"><path d="M325 1106.5c.333-.67.667-1.33 1-2a435.825 435.825 0 0 1 40-28.5c92-59.67 184-119.33 276-179 19.41-12.7 38.41-25.86 57-39.5h1c1.33-79.83 1.33-159.83 0-240-.61.124-.94.457-1 1-.67 0-1 .333-1 1a353.112 353.112 0 0 1-18 10.5 9724.352 9724.352 0 0 1-100 67.5c-1.38 31.5-2.38 63.16-3 95a75.302 75.302 0 0 0-14 9c-3.2.88-5.87 2.55-8 5-13.18 8.09-26.18 16.42-39 25-3.2.88-5.87 2.55-8 5-3.2.88-5.87 2.55-8 5a2865.569 2865.569 0 0 0-61 39c-3.204.88-5.871 2.55-8 5a1406.186 1406.186 0 0 0-43 27c-3.204.88-5.871 2.55-8 5-2.174.25-3.841 1.25-5 3-12.649 7.64-25.316 15.31-38 23h-3a62868.73 62868.73 0 0 1 240.5-153c.33-31 .67-62 1-93 32.24-22.54 64.74-44.7 97.5-66.5 8.84-5.516 17.68-11.016 26.5-16.5.77.145 1.44.478 2 1 .67 81.33.67 162.67 0 244A179.657 179.657 0 0 1 676 879a986298.886 986298.886 0 0 0-351 227.5Z" style="shape-rendering: geometricprecision; text-rendering: geometricprecision; fill-rule: evenodd; clip-rule: evenodd; fill: rgb(20, 20, 20);" class="fills" data-testid="svg-path"/></g><g style="opacity: 0.318;"><path d="M699 618.5c.06-.543.39-.876 1-1 1.33 80.17 1.33 160.17 0 240 .33-79.84 0-159.5-1-239Z" style="shape-rendering: geometricprecision; text-rendering: geometricprecision; fill-rule: evenodd; clip-rule: evenodd; fill: rgb(84, 84, 84);" class="fills" data-testid="svg-path"/></g><g style="opacity: 0.91;"><path d="M698 619.5c0-.667.33-1 1-1 1 79.5 1.33 159.16 1 239h-1c.33-79.5 0-158.84-1-238Z" style="shape-rendering: geometricprecision; text-rendering: geometricprecision; fill-rule: evenodd; clip-rule: evenodd; fill: rgb(192, 192, 192);" class="fills" data-testid="svg-path"/></g><g style="opacity: 1;"><path d="M580 697.5c-.14 31.34-.64 62.67-1.5 94-.38.56-.88.89-1.5 1 .62-31.84 1.62-63.5 3-95Z" style="shape-rendering: geometricprecision; text-rendering: geometricprecision; fill-rule: evenodd; clip-rule: evenodd; fill: rgb(202, 202, 202);" class="fills" data-testid="svg-path"/></g><g style="opacity: 1;"><path d="M563 801.5a44.53 44.53 0 0 1-4 4.5c-1.29.49-2.63.66-4 .5 2.13-2.45 4.8-4.12 8-5Z" style="shape-rendering: geometricprecision; text-rendering: geometricprecision; fill-rule: evenodd; clip-rule: evenodd; fill: rgb(178, 178, 178);" class="fills" data-testid="svg-path"/></g><g style="opacity: 1;"><path d="M516 831.5a44.53 44.53 0 0 1-4 4.5c-1.29.49-2.63.66-4 .5 2.13-2.45 4.8-4.12 8-5Z" style="shape-rendering: geometricprecision; text-rendering: geometricprecision; fill-rule: evenodd; clip-rule: evenodd; fill: rgb(182, 182, 182);" class="fills" data-testid="svg-path"/></g><g style="opacity: 1;"><path d="M508 836.5a44.53 44.53 0 0 1-4 4.5c-1.29.49-2.63.66-4 .5 2.13-2.45 4.8-4.12 8-5Z" style="shape-rendering: geometricprecision; text-rendering: geometricprecision; fill-rule: evenodd; clip-rule: evenodd; fill: rgb(175, 175, 175);" class="fills" data-testid="svg-path"/></g><g style="opacity: 1;"><path d="M439 880.5a44.286 44.286 0 0 1-4 4.5 8.394 8.394 0 0 1-4 .5c2.129-2.45 4.796-4.12 8-5Z" style="shape-rendering: geometricprecision; text-rendering: geometricprecision; fill-rule: evenodd; clip-rule: evenodd; fill: rgb(186, 186, 186);" class="fills" data-testid="svg-path"/></g><g style="opacity: 1;"><path d="M388 912.5a44.286 44.286 0 0 1-4 4.5 8.394 8.394 0 0 1-4 .5c2.129-2.45 4.796-4.12 8-5Z" style="shape-rendering: geometricprecision; text-rendering: geometricprecision; fill-rule: evenodd; clip-rule: evenodd; fill: rgb(183, 183, 183);" class="fills" data-testid="svg-path"/></g><g style="opacity: 0.996;"><path d="M380 917.5c-.986 1.91-2.652 2.91-5 3 1.159-1.75 2.826-2.75 5-3Z" style="shape-rendering: geometricprecision; text-rendering: geometricprecision; fill-rule: evenodd; clip-rule: evenodd; fill: rgb(145, 145, 145);" class="fills" data-testid="svg-path"/></g><g style="opacity: 0.996;"><path d="M750 919.5c-1.53 1.87-3.53 3.2-6 4 1.3-2.32 3.3-3.66 6-4Z" style="shape-rendering: geometricprecision; text-rendering: geometricprecision; fill-rule: evenodd; clip-rule: evenodd; fill: rgb(145, 145, 145);" class="fills" data-testid="svg-path"/></g><g style="opacity: 0.173;"><path d="M334 943.5h3c-3.333 2.33-6.667 4.67-10 7-2.333.67-4.667 1.33-7 2v-1c4.667-2.67 9.333-5.33 14-8Z" style="shape-rendering: geometricprecision; text-rendering: geometricprecision; fill-rule: evenodd; clip-rule: evenodd; fill: rgb(61, 61, 61);" class="fills" data-testid="svg-path"/></g><g style="opacity: 0.984;"><path d="m315 874.5 2 80c1-.67 2-1.33 3-2 2.333-.67 4.667-1.33 7-2-3.268 3.21-7.268 4.87-12 5v-81Z" style="shape-rendering: geometricprecision; text-rendering: geometricprecision; fill-rule: evenodd; clip-rule: evenodd; fill: rgb(178, 178, 178);" class="fills" data-testid="svg-path"/></g><g style="opacity: 1;"><path d="M634 994.5c-2.48 4.08-6.15 6.41-11 7 3.15-3.08 6.82-5.41 11-7Z" style="shape-rendering: geometricprecision; text-rendering: geometricprecision; fill-rule: evenodd; clip-rule: evenodd; fill: rgb(185, 185, 185);" class="fills" data-testid="svg-path"/></g><g style="opacity: 0.376;"><path d="M194 360.5c.26 232.668-.073 465.34-1 698h-1c.433-232.83 1.1-465.5 2-698Z" style="shape-rendering: geometricprecision; text-rendering: geometricprecision; fill-rule: evenodd; clip-rule: evenodd; fill: rgb(72, 72, 72);" class="fills" data-testid="svg-path"/></g><g style="opacity: 0.816;"><path d="M195 359.5v785h-1c-.991-28.59-1.325-57.26-1-86 .927-232.66 1.26-465.332 1-698 0-.667.333-1 1-1Z" style="shape-rendering: geometricprecision; text-rendering: geometricprecision; fill-rule: evenodd; clip-rule: evenodd; fill: rgb(169, 169, 169);" class="fills" data-testid="svg-path"/></g><g style="opacity: 0.973;"><path d="M19 1073.5c1.527-.07 2.527.59 3 2-1.527.07-2.527-.59-3-2Z" style="shape-rendering: geometricprecision; text-rendering: geometricprecision; fill-rule: evenodd; clip-rule: evenodd; fill: rgb(120, 120, 120);" class="fills" data-testid="svg-path"/></g><g style="opacity: 0.655;"><path d="M159 1016.5c1.164 37.83 1.331 75.83.5 114-.351 4.7-.851 9.36-1.5 14-1.915.28-3.581-.05-5-1h4c.714-6.63 1.214-13.3 1.5-20 .5-35.67.667-71.33.5-107Z" style="shape-rendering: geometricprecision; text-rendering: geometricprecision; fill-rule: evenodd; clip-rule: evenodd; fill: rgb(77, 77, 77);" class="fills" data-testid="svg-path"/></g><g style="opacity: 0.376;"><path d="M192 1058.5h1c-.325 28.74.009 57.41 1 86-1.992-28.31-2.659-56.98-2-86Z" style="shape-rendering: geometricprecision; text-rendering: geometricprecision; fill-rule: evenodd; clip-rule: evenodd; fill: rgb(88, 88, 88);" class="fills" data-testid="svg-path"/></g><g style="opacity: 0.247;"><path d="M326 1104.5c-.333.67-.667 1.33-1 2a567.15 567.15 0 0 1-6 5 5.72 5.72 0 0 1 1-3c1.647-1.83 3.647-3.16 6-4Z" style="shape-rendering: geometricprecision; text-rendering: geometricprecision; fill-rule: evenodd; clip-rule: evenodd; fill: rgb(94, 94, 94);" class="fills" data-testid="svg-path"/></g><g style="opacity: 1;"><path d="M89 1113.5c2.843.44 5.509 1.44 8 3 .798.46 1.131 1.12 1 2-3.492-.91-6.492-2.58-9-5Z" style="shape-rendering: geometricprecision; text-rendering: geometricprecision; fill-rule: evenodd; clip-rule: evenodd; fill: rgb(162, 162, 162);" class="fills" data-testid="svg-path"/></g><g style="opacity: 0.541;"><path d="M320 1108.5a5.72 5.72 0 0 0-1 3l-9 6c-4.447 1.11-8.113 3.45-11 7a6.97 6.97 0 0 1-4 2 105.245 105.245 0 0 1 25-18Z" style="shape-rendering: geometricprecision; text-rendering: geometricprecision; fill-rule: evenodd; clip-rule: evenodd; fill: rgb(175, 175, 175);" class="fills" data-testid="svg-path"/></g><g style="opacity: 0.039;"><path d="M310 1117.5a68.55 68.55 0 0 1-9 7h-2c2.887-3.55 6.553-5.89 11-7Z" style="shape-rendering: geometricprecision; text-rendering: geometricprecision; fill-rule: evenodd; clip-rule: evenodd; fill: rgb(90, 90, 90);" class="fills" data-testid="svg-path"/></g><g style="opacity: 1;"><path d="M111 1125.5c4.336.34 8.003 2 11 5-4.093-.88-7.76-2.55-11-5Z" style="shape-rendering: geometricprecision; text-rendering: geometricprecision; fill-rule: evenodd; clip-rule: evenodd; fill: rgb(142, 142, 142);" class="fills" data-testid="svg-path"/></g><g style="opacity: 1;"><path d="M315 1153.5c-1.411 2.41-3.411 4.08-6 5 1.411-2.41 3.411-4.08 6-5Z" style="shape-rendering: geometricprecision; text-rendering: geometricprecision; fill-rule: evenodd; clip-rule: evenodd; fill: rgb(162, 162, 162);" class="fills" data-testid="svg-path"/></g><g style="opacity: 1;"><path d="M309 1158.5c-1.739 2.74-4.073 4.74-7 6 1.739-2.74 4.073-4.74 7-6Z" style="shape-rendering: geometricprecision; text-rendering: geometricprecision; fill-rule: evenodd; clip-rule: evenodd; fill: rgb(162, 162, 162);" class="fills" data-testid="svg-path"/></g><g style="opacity: 1;"><path d="M232 1162.5c3.339.68 6.339 2.01 9 4-3.665 0-6.665-1.34-9-4Z" style="shape-rendering: geometricprecision; text-rendering: geometricprecision; fill-rule: evenodd; clip-rule: evenodd; fill: rgb(163, 163, 163);" class="fills" data-testid="svg-path"/></g><g style="opacity: 1;"><path d="M302 1164.5c-1.085 2.09-2.751 3.42-5 4 1.085-2.09 2.751-3.42 5-4Z" style="shape-rendering: geometricprecision; text-rendering: geometricprecision; fill-rule: evenodd; clip-rule: evenodd; fill: rgb(162, 162, 162);" class="fills" data-testid="svg-path"/></g><g style="opacity: 1;"><path d="M274 1189.5a102.562 102.562 0 0 1-12 12c3-5 7-9 12-12Z" style="shape-rendering: geometricprecision; text-rendering: geometricprecision; fill-rule: evenodd; clip-rule: evenodd; fill: rgb(145, 145, 145);" class="fills" data-testid="svg-path"/></g><g style="opacity: 1;"><path d="M262 1201.5c-1.13 1.81-1.796 3.81-2 6-1.516-2.58-.849-4.58 2-6Z" style="shape-rendering: geometricprecision; text-rendering: geometricprecision; fill-rule: evenodd; clip-rule: evenodd; fill: rgb(151, 151, 151);" class="fills" data-testid="svg-path"/></g><g style="opacity: 1;"><path d="M322 1242.5c3.139.1 5.473 1.43 7 4-2.831-.58-5.164-1.91-7-4Z" style="shape-rendering: geometricprecision; text-rendering: geometricprecision; fill-rule: evenodd; clip-rule: evenodd; fill: rgb(157, 157, 157);" class="fills" data-testid="svg-path"/></g><g style="opacity: 1;"><path d="M394 1282.5c5.006.67 9.339 2.67 13 6-4.762-1.22-9.095-3.22-13-6Z" style="shape-rendering: geometricprecision; text-rendering: geometricprecision; fill-rule: evenodd; clip-rule: evenodd; fill: rgb(147, 147, 147);" class="fills" data-testid="svg-path"/></g></g></svg>